# xmcd
#
# Track frame offsets: 
#        150
#        16737
#        30910
#        46825
#        59917
#        69872
#        84150
#        94240
#        108892
#        115040
#        132317
#        150765
#        164142
#        182347
#        190315
#        201235
#        210625
#        218260
#        230567
#        244102
#        258355
#        271937
#        285785
#        298202
#        310647
#
# Disc length: 4332 seconds
#
# Revision: 0
# Processed by: cddbd v1.5.2PL0 Copyright (c) Steve Scherf et al.
# Submitted via: ExactAudioCopy v0.95b3
#
DISCID=4b10ea19
DTITLE=The Byrds  - There Is A Season - Disc 4
DYEAR=1900
DGENRE=
TTITLE0=Lover Of The Bayou (Live)
TTITLE1=Positively Fourth Street (Live)
TTITLE2=Old Blue (Live)
TTITLE3=It's Alright Ma (Live)
TTITLE4=Ballad Of Easy Rider (Live)
TTITLE5=You All Look Alike (Live)
TTITLE6=Nashville West (Live)
TTITLE7=Willin' (Live)
TTITLE8=Black Mountain Rag (Live)
TTITLE9=Baby What You Want Me To Do (Live)
TTITLE10=I Trust (Live)
TTITLE11=Take A Whiff (Live)
TTITLE12=Glory, Glory
TTITLE13=Byrdgrass
TTITLE14=Pale Blue
TTITLE15=I Wanna Grow Up To Be A Politician
TTITLE16=Nothin' To It
TTITLE17=Tiffany Queen
TTITLE18=Farther Along
TTITLE19=Bugler
TTITLE20=Mr. Tambourine Man (Live)
TTITLE21=Roll Over Beethoven (Live)
TTITLE22=Full Circle
TTITLE23=Changing Heart
TTITLE24=Paths Of Victory
EXTD=
EXTT0=
EXTT1=
EXTT2=
EXTT3=
EXTT4=
EXTT5=
EXTT6=
EXTT7=
EXTT8=
EXTT9=
EXTT10=
EXTT11=
EXTT12=
EXTT13=
EXTT14=
EXTT15=
EXTT16=
EXTT17=
EXTT18=
EXTT19=
EXTT20=
EXTT21=
EXTT22=
EXTT23=
EXTT24=
PLAYORDER=
